PathFileType	4	(X/Y/Z)	Patient4_TMGait_0pt5_02_left_29.trc.trc
DataRate	CameraRate	NumFrames	NumMarkers	Units	OrigDataRate	OrigDataStartFrame	OrigNumFrames
79.096045197740	79.096045197740	4	33	mm	79.096045197740	53	       141
Frame#	Time	Sacral			L.Shoulder			Chest			R.Shoulder			Neck			R.ASIS			L.ASIS			R.Thigh.Superior			R.Thigh.Lateral			R.Thigh.Inferior			R.Patella			L.Thigh.Superior			L.Thigh.Lateral			L.Thigh.Inferior			L.Patella			L.Shank.Superior			L.Shank.Lateral			L.Shank.Inferior			R.Shank.Superior			R.Shank.Lateral			R.Shank.Inferior			R.Heel			R.Midfoot.Superior			R.Midfoot.Lateral			R.Toe			L.Heel			L.Midfoot.Lateral			L.Midfoot.Superior			L.Toe			L.Elbow			L.Wrist			R.Elbow			R.Wrist			
		X1	Y1	Z1	X2	Y2	Z2	X3	Y3	Z3	X4	Y4	Z4	X5	Y5	Z5	X6	Y6	Z6	X7	Y7	Z7	X8	Y8	Z8	X9	Y9	Z9	X10	Y10	Z10	X11	Y11	Z11	X12	Y12	Z12	X13	Y13	Z13	X14	Y14	Z14	X15	Y15	Z15	X16	Y16	Z16	X17	Y17	Z17	X18	Y18	Z18	X19	Y19	Z19	X20	Y20	Z20	X21	Y21	Z21	X22	Y22	Z22	X23	Y23	Z23	X24	Y24	Z24	X25	Y25	Z25	X26	Y26	Z26	X27	Y27	Z27	X28	Y28	Z28	X29	Y29	Z29	X30	Y30	Z30	X31	Y31	Z31	X32	Y32	Z32	X33	Y33	Z33	

53	37.847428571429	678.754571271524	1014.333375680011	449.248171362715	868.780307651709	1436.839054848099	263.768389780756	969.697417374434	1362.414669690665	424.097281329895	890.133695106111	1439.156938456266	599.196099381726	873.509168972512	1497.246179289920	413.983982755891	902.844432350296	945.937574582291	564.995799581232	892.247809039769	961.815068001602	291.750980003830	984.792227941669	775.090162374235	529.889042212591	946.412337661801	654.731262384287	600.114594696308	1033.112397758929	616.251570354922	516.472797253351	1052.770175812517	502.205179210299	536.001936158087	940.470207110177	751.793897530934	324.061881124147	851.462119061335	637.564619245010	267.761039997619	931.382255049095	559.227913625759	335.424662048029	929.746551747510	488.958222983266	347.865049038447	903.316191662065	417.808115746029	338.560625784518	816.294370423384	303.635143856256	284.721974896072	861.308422714609	193.514413569932	360.562895067221	976.029625892736	427.996506334591	545.145493078763	855.485379919565	387.508213516722	605.569127789490	840.942290053955	279.037775124298	557.670562621666	641.462917734854	223.950226106782	528.296147732386	805.242897517591	155.831174907697	573.527711665487	696.227569646251	166.001017997521	606.569551864204	861.322765931657	40.942805148256	609.435524492467	728.637752259113	38.068698833525	397.617908001000	805.640987704463	35.335332335890	319.639780529607	888.020412119781	96.249166730365	349.656027722310	1017.538952419043	42.547997942774	326.256954858049	820.836624505558	1093.076228967345	127.328412565429	1009.802894367042	913.224780125359	118.659665672040	839.434746533091	1094.152428736249	716.337347916062	887.410180906948	836.828576602310	715.221983085252	
54	37.860071428571	677.203502409624	1015.082562189033	447.713598611956	870.476992476157	1437.433992583781	263.879127131153	969.586593925157	1362.544464667804	425.081277499669	888.569087175841	1439.331080690635	599.529040917532	873.861180211569	1497.595936698073	414.265629160706	900.606342758164	946.695809104149	565.124410509718	891.713896170609	962.112361314294	291.836104984593	984.842724373118	778.581547786403	529.532753885660	948.818372823199	657.830877717554	599.950044555864	1035.805574311632	620.689845106449	515.982781391595	1057.921584398605	507.381471685505	535.716417494696	937.807109444061	751.017949197222	324.494391139448	847.971649842277	637.667879304464	267.440915390889	926.567094397274	558.618915515276	335.631401287175	924.159275677141	488.466639611986	348.054418873826	897.734356316022	417.594817126966	338.538408907059	810.571600298831	303.600283740318	284.582073209667	855.096128778442	193.420220065433	360.575099364100	983.394679323406	431.255410977501	545.135644608089	864.324926314191	386.756354464173	605.543143395604	853.510935620819	277.754807410701	557.828745888127	655.933394795997	215.250681325310	528.677506635577	822.344027104520	153.828808572300	573.960407732865	713.043920306351	159.524535365733	606.903636077344	882.751298317724	41.188563993853	609.488747902915	722.218359561547	38.045898623199	397.568379592568	799.255556546731	35.317722085633	319.591888971618	881.632268786887	96.235918332555	349.625198823877	1011.155007588409	42.527729863902	326.229703584688	822.693828852616	1094.173687419510	126.429636478500	1016.414126234318	919.779695231129	118.706855533841	829.552793676201	1096.227010624840	717.326783621028	868.989189380390	837.520404843873	719.940846274360	
55	37.872714285714	675.599213757261	1015.848598938586	446.211937556784	872.293315054063	1437.932036226452	264.084222435964	969.515456788758	1362.607130988539	426.198616361628	887.001617668790	1439.519239048276	599.933489365878	874.248361886603	1497.886218984324	414.620422941717	898.373719944859	947.399938253991	565.413906633836	891.250718951070	962.390984072944	292.034777904571	984.600339443350	781.806356163670	529.444461507104	950.608654891063	660.702619616108	600.071775066868	1037.830027716250	624.720490201705	515.898374578572	1062.222535168688	512.407250195314	535.890940456984	935.096323173157	750.226302577922	325.092641019453	844.458448503339	637.764226919747	267.185840103468	921.694387464329	558.013006534924	335.908318563700	918.503484935805	487.981793768911	348.279770050842	892.108579049624	417.383101963157	338.555479022307	804.824137071574	303.560764867303	284.470732646488	848.859846568649	193.321184294970	360.611852417200	990.358373944105	434.255482469966	545.531700664566	873.251008790630	385.118506741728	605.999679296934	866.763362041186	275.690921084122	558.389924060089	671.718703476053	204.771318484403	529.561138640989	840.887208131481	151.109885831954	574.833700962054	731.439095062711	151.671380703968	607.680620959226	906.170578677573	41.206225292898	609.851921521693	715.808372644539	38.019114951618	397.530943811156	792.874820759438	35.298222124460	319.554346522357	875.249208461810	96.219180792657	349.608635231408	1004.780021451943	42.504790619087	326.211797108764	824.558838161488	1095.158649655477	125.743984368918	1022.685120259363	926.132736588140	119.186127317560	819.895158736516	1098.486036302371	718.335034005296	851.571777841148	838.886636491689	724.057774033974	
56	37.885357142857	673.971237954626	1016.601698980889	444.763144871331	874.188627276816	1438.316527472724	264.391179855987	969.477318431987	1362.582653896692	427.432470743924	885.455154293081	1439.685008979465	600.409164635303	874.672144644685	1498.098414223127	415.054938381259	896.165584498552	948.020236662317	565.835212137600	890.875947839413	962.641001309042	292.320285121127	984.055113350774	784.682192908092	529.604628165693	951.720971709772	663.253022204513	600.473887148804	1039.133764147849	628.228359458654	516.229477607665	1065.593303762359	517.175061098047	536.514266600263	932.381813851463	749.420100718067	325.822157031362	840.967470077155	637.838027295198	266.997110766641	916.835778999240	557.403570163978	336.243343663389	912.861461854592	487.495235057455	348.538028656281	886.501970700560	417.155093193591	338.616491638133	799.097890993504	303.512785318812	284.391233320934	842.628923107996	193.206662666088	360.677453827180	996.837471769884	436.957451735755	546.320556549554	882.260695407576	382.653337855817	606.958886243389	880.636197804244	272.987837684469	559.357341418705	688.886649682764	192.828054462215	530.974599497718	860.750835680475	147.866015818696	576.105254142033	751.402911744829	142.747362219347	608.911133558303	931.330561239358	41.215998228901	610.491199876450	709.411680219285	37.988852240610	397.503034529010	786.500117691014	35.277055459929	319.526964721708	868.872842530204	96.197866654015	349.608742507223	998.415221014041	42.478433300164	326.203207635325	826.472047829701	1096.005487835725	125.257852906586	1028.651069578279	932.225276527751	120.103901098412	810.533983137251	1100.848842208082	719.336283713070	835.199995357451	840.731344295130	727.612083533802	
